<?xml version="1.0" encoding="UTF-8" standalone="no"?>
<!-- Created with Inkscape (http://www.inkscape.org/) -->

<svg
   width="1000"
   height="1000"
   viewBox="0 0 264.58333 264.58333"
   version="1.1"
   id="svg1"
   inkscape:version="1.4 (e7c3feb1, 2024-10-09)"
   sodipodi:docname="about-graphic.svg"
   xmlns:inkscape="http://www.inkscape.org/namespaces/inkscape"
   xmlns:sodipodi="http://sodipodi.sourceforge.net/DTD/sodipodi-0.dtd"
   xmlns="http://www.w3.org/2000/svg"
   xmlns:svg="http://www.w3.org/2000/svg">
  <sodipodi:namedview
     id="namedview1"
     pagecolor="#ffffff"
     bordercolor="#000000"
     borderopacity="0.25"
     inkscape:showpageshadow="2"
     inkscape:pageopacity="0.0"
     inkscape:pagecheckerboard="0"
     inkscape:deskcolor="#d1d1d1"
     inkscape:document-units="mm"
     inkscape:zoom="0.53993343"
     inkscape:cx="155.57473"
     inkscape:cy="652.85826"
     inkscape:window-width="2560"
     inkscape:window-height="1440"
     inkscape:window-x="0"
     inkscape:window-y="0"
     inkscape:window-maximized="0"
     inkscape:current-layer="layer1" />
  <defs
     id="defs1" />
  <g
     inkscape:label="Layer 1"
     inkscape:groupmode="layer"
     id="layer1">
    <rect
       style="fill:#a3a3a3;stroke-width:2.10568;stroke-linecap:round;stroke-linejoin:round"
       id="rect1"
       width="264.58334"
       height="264.58334"
       x="0"
       y="0" />
    <path
       d="m 28.849891,140.27397 h 4.5059 l 2.148509,-5.46079 h 8.623876 l 2.118668,5.46079 h 4.684943 l -8.504514,-20.88828 h -4.983347 z m 7.997227,-8.95212 2.98404,-7.69882 2.98404,7.69882 z m 15.5767,8.95212 h 4.028454 v -1.07425 c 1.223456,0.83553 2.715476,1.28313 4.297017,1.28313 4.505901,0 8.027068,-3.49132 8.027068,-7.96738 0,-4.47606 -3.491327,-7.99723 -7.907706,-7.99723 -1.641222,0 -3.133242,0.47745 -4.356698,1.46218 v -7.28106 l -4.088135,0.68633 z m 7.788344,-3.2526 c -1.462179,0 -2.804997,-0.53713 -3.700209,-1.46218 v -6.0576 c 0.895212,-0.98474 2.208189,-1.49202 3.700209,-1.49202 2.536434,0 4.535741,1.93962 4.535741,4.5059 0,2.56627 -1.969466,4.5059 -4.535741,4.5059 z m 18.65025,3.55101 c 4.655103,0 8.295632,-3.52117 8.295632,-8.05691 0,-4.53574 -3.640529,-8.08675 -8.295632,-8.08675 -4.655102,0 -8.295631,3.55101 -8.295631,8.08675 0,4.53574 3.640529,8.05691 8.295631,8.05691 z m 0,-3.55101 c -2.417072,0 -4.297018,-1.96947 -4.297018,-4.5059 0,-2.53644 1.909786,-4.53574 4.297018,-4.53574 2.417073,0 4.326858,1.9993 4.326858,4.53574 0,2.53643 -1.909785,4.5059 -4.326858,4.5059 z m 16.829964,3.55101 c 1.730743,0 3.222763,-0.53713 4.386534,-1.55171 v 1.2533 h 4.08814 v -15.54685 h -4.08814 v 10.77239 c -0.746005,0.98473 -1.82026,1.5517 -3.222759,1.5517 -1.939626,0 -3.222763,-1.28314 -3.222763,-3.28245 v -9.04164 h -4.088135 v 9.63845 c 0,3.67037 2.536434,6.20681 6.147123,6.20681 z m 19.038184,-0.0597 c 0.89522,0 2.29771,-0.17904 3.16309,-0.4476 v -3.37197 c -0.80569,0.26857 -1.4025,0.35809 -2.17835,0.35809 -1.58154,0 -2.14851,-0.53713 -2.14851,-1.99931 v -6.92297 h 4.44622 v -3.40181 h -4.44622 v -4.89382 l -4.08814,0.92505 v 3.96877 h -3.19292 v 3.40181 h 3.19292 v 7.7585 c 0,3.04372 1.79043,4.62526 5.25191,4.62526 z m 21.81334,0.0895 c 6.02776,0 10.47398,-4.56559 10.47398,-10.74255 v -1.31298 h -10.80223 v 3.75989 h 6.17697 c -0.53713,2.53644 -2.83484,4.3567 -5.78904,4.3567 -3.78973,0 -6.68425,-2.9542 -6.68425,-6.83345 0,-3.87925 2.805,-6.80361 6.56489,-6.80361 2.23803,0 4.20749,0.95489 5.66967,2.71548 l 3.01388,-2.77516 c -1.9993,-2.44691 -5.22207,-3.90909 -8.68355,-3.90909 -6.17696,0 -11.01111,4.74462 -11.01111,10.77238 0,6.02776 4.86399,10.77239 11.07079,10.77239 z m 13.15963,-0.32825 h 4.08813 v -10.08605 c 0.77585,-1.46218 2.14851,-2.29771 3.75989,-2.29771 0.74601,0 1.49202,0.1492 2.08883,0.41776 v -3.58085 c -0.41776,-0.23872 -0.86537,-0.32824 -1.7009,-0.35808 -1.73074,0 -3.16308,0.74601 -4.14782,2.08883 v -1.73075 h -4.08813 z m 16.71066,0.26857 c 1.73074,0 3.19292,-0.41777 4.47606,-1.37266 v 1.10409 h 4.02846 v -10.08605 c 0,-3.67037 -2.41708,-5.7592 -6.62457,-5.7592 -2.26787,0 -4.47606,0.53713 -6.92298,1.67106 l 1.49202,3.01388 c 1.96947,-0.89521 3.43165,-1.28314 4.74463,-1.28314 2.17835,0 3.28244,0.92506 3.28244,2.71548 v 1.13394 c -1.19361,-0.41777 -2.47675,-0.62665 -3.81957,-0.62665 -3.96877,0 -6.32616,1.76058 -6.32616,4.71478 0,2.83484 2.29771,4.77447 5.66967,4.77447 z m -1.79042,-4.86399 c 0,-1.19362 1.10409,-1.93963 2.98404,-1.93963 1.19361,0 2.26787,0.17905 3.28244,0.59681 v 2.26787 c -0.92505,0.68633 -2.08883,1.01458 -3.43164,1.01458 -1.73075,0 -2.83484,-0.74601 -2.83484,-1.93963 z m 13.39835,10.68286 h 4.08813 v -7.10201 c 1.22346,0.80569 2.68564,1.22345 4.23734,1.22345 4.5059,0 8.02707,-3.49132 8.02707,-7.96738 0,-4.47606 -3.49133,-7.99723 -7.90771,-7.99723 -1.64122,0 -3.16308,0.50729 -4.41638,1.49202 v -1.28314 h -4.02845 z m 7.78834,-9.34004 c -1.46218,0 -2.805,-0.53713 -3.70021,-1.46218 v -6.0576 c 0.89521,-0.98474 2.20819,-1.49202 3.70021,-1.49202 2.53644,0 4.53574,1.93962 4.53574,4.5059 0,2.56627 -1.96946,4.5059 -4.53574,4.5059 z m 11.07079,3.2526 h 4.08813 v -10.77238 c 0.71617,-0.98474 1.82027,-1.5517 3.19293,-1.5517 1.96946,0 3.22276,1.28313 3.22276,3.28244 v 9.04164 h 4.08813 v -9.63845 c 0,-3.67037 -2.53643,-6.2068 -6.14712,-6.2068 -1.7009,0 -3.19292,0.53713 -4.3567,1.5517 v -7.48994 l -4.08813,0.89521 z m 19.7245,-17.39695 c 1.28314,0 2.32755,-1.07426 2.32755,-2.32755 0,-1.28314 -1.04441,-2.32755 -2.32755,-2.32755 -1.28313,0 -2.32755,1.04441 -2.32755,2.32755 0,1.25329 1.04442,2.32755 2.32755,2.32755 z m -2.02914,17.39695 h 4.08813 v -15.54685 h -4.08813 z m 14.71131,0.29841 c 2.38723,0 4.71478,-1.01458 6.32616,-2.74532 l -2.44691,-2.56628 c -1.1041,1.19362 -2.29771,1.73075 -3.70021,1.73075 -2.41707,0 -4.26718,-1.90979 -4.26718,-4.47606 0,-2.56628 1.82027,-4.53574 4.17766,-4.53574 1.46218,0 2.71547,0.62664 3.84941,1.87994 l 2.50659,-2.65579 c -1.61138,-1.76059 -3.96877,-2.77516 -6.44552,-2.77516 -4.59542,0 -8.14643,3.55101 -8.14643,8.08675 0,4.53574 3.55101,8.05691 8.14643,8.05691 z"
       id="text1"
       style="font-weight:bold;font-size:29.8404px;line-height:1;font-family:'Red Hat Display';-inkscape-font-specification:'Red Hat Display Bold';text-align:center;letter-spacing:0px;text-anchor:middle;fill:#151515;stroke-width:2.84423;stroke-linecap:round;stroke-linejoin:round"
       aria-label="About Graphic" />
  </g>
</svg>
