<?xml version="1.0" encoding="UTF-8" standalone="no"?>
<!-- Created with Inkscape (http://www.inkscape.org/) -->

<svg
   width="32"
   height="32"
   viewBox="0 0 8.4666667 8.4666667"
   version="1.1"
   id="svg1"
   xml:space="preserve"
   sodipodi:docname="favicon.svg"
   inkscape:version="1.4 (e7c3feb1, 2024-10-09)"
   inkscape:export-filename="../PNG/ramalama-logo-full-vertical-added-bg.png"
   inkscape:export-xdpi="96"
   inkscape:export-ydpi="96"
   xmlns:inkscape="http://www.inkscape.org/namespaces/inkscape"
   xmlns:sodipodi="http://sodipodi.sourceforge.net/DTD/sodipodi-0.dtd"
   xmlns="http://www.w3.org/2000/svg"
   xmlns:svg="http://www.w3.org/2000/svg"><sodipodi:namedview
     id="namedview1"
     pagecolor="#ffffff"
     bordercolor="#000000"
     borderopacity="0.25"
     inkscape:showpageshadow="2"
     inkscape:pageopacity="0.0"
     inkscape:pagecheckerboard="0"
     inkscape:deskcolor="#d1d1d1"
     inkscape:document-units="mm"
     inkscape:zoom="16.214451"
     inkscape:cx="23.559231"
     inkscape:cy="19.827992"
     inkscape:window-width="2256"
     inkscape:window-height="1296"
     inkscape:window-x="0"
     inkscape:window-y="25"
     inkscape:window-maximized="0"
     inkscape:current-layer="g2"
     showguides="true"><sodipodi:guide
       position="163.40365,59.918079"
       orientation="0,-1"
       id="guide2"
       inkscape:locked="false" /><sodipodi:guide
       position="120.67873,168.19005"
       orientation="0,-1"
       id="guide3"
       inkscape:locked="false" /><sodipodi:guide
       position="127.42125,81.52088"
       orientation="0,-1"
       id="guide4"
       inkscape:locked="false" /><sodipodi:guide
       position="105.01807,139.09284"
       orientation="1,0"
       id="guide5"
       inkscape:locked="false" /></sodipodi:namedview><defs
     id="defs1" /><g
     id="g2"
     transform="matrix(0.81356382,0,0,0.81356382,19.593859,11.737648)"><rect
       style="fill:#a3a3a3;stroke-width:1.32258;stroke-linecap:round;stroke-linejoin:round"
       id="rect1"
       width="10.406887"
       height="10.406887"
       x="-24.083984"
       y="-14.427446" /><g
       id="text1"
       style="font-size:2.66272px;line-height:1;font-family:Montserrat;-inkscape-font-specification:'Montserrat, @wght=700';font-variation-settings:'wght' 700;text-align:center;letter-spacing:0px;text-anchor:middle;fill:#151515;stroke-width:2.03038;stroke-linecap:round;stroke-linejoin:round"
       aria-label="Favicon&#10;Here"
       transform="matrix(0.7859829,0,0,0.7859829,-4.040757,-1.9740924)"><path
         style="-inkscape-font-specification:Montserrat"
         d="m -24.083987,-9.5182333 v -1.8639037 h 1.408579 v 0.346153 h -0.977218 v 1.5177507 z m 0.399408,-0.6789937 v -0.346153 h 0.894674 v 0.346153 z m 2.112006,0.6789937 v -0.2795856 l -0.02663,-0.061243 v -0.5005911 q 0,-0.133136 -0.08254,-0.207692 -0.07988,-0.07456 -0.247633,-0.07456 -0.114497,0 -0.226332,0.03728 -0.109171,0.03462 -0.18639,0.09586 l -0.149112,-0.290237 q 0.117159,-0.08254 0.282248,-0.12781 0.165089,-0.04527 0.335503,-0.04527 0.327514,0 0.508579,0.154437 0.181065,0.154438 0.181065,0.481953 v 0.8174543 z m -0.436686,0.021302 q -0.167751,0 -0.287574,-0.055917 -0.119822,-0.05858 -0.183727,-0.1571004 -0.06391,-0.098521 -0.06391,-0.2210058 0,-0.1278105 0.06124,-0.2236685 0.0639,-0.09586 0.199704,-0.149113 0.135799,-0.05592 0.354142,-0.05592 h 0.380769 v 0.242308 h -0.335503 q -0.14645,0 -0.202367,0.04793 -0.05325,0.04793 -0.05325,0.1198225 0,0.079882 0.06124,0.1278105 0.06391,0.045266 0.173077,0.045266 0.103846,0 0.186391,-0.047929 0.08254,-0.050592 0.119822,-0.1464496 l 0.0639,0.1917158 q -0.04527,0.1384615 -0.165088,0.2103549 -0.119823,0.071893 -0.308876,0.071893 z m 1.563018,-0.021302 -0.601775,-1.4325437 h 0.428698 l 0.500591,1.2328397 h -0.213017 l 0.51923,-1.2328397 h 0.399408 l -0.604438,1.4325437 z m 1.203548,0 v -1.4325437 h 0.415384 v 1.4325437 z m 0.207692,-1.6322477 q -0.114497,0 -0.18639,-0.06657 -0.07189,-0.06657 -0.07189,-0.165088 0,-0.09852 0.07189,-0.165089 0.07189,-0.06657 0.18639,-0.06657 0.114497,0 0.186391,0.06391 0.07189,0.06124 0.07189,0.159764 0,0.103846 -0.07189,0.173076 -0.06923,0.06657 -0.186391,0.06657 z m 1.286096,1.6535495 q -0.231657,0 -0.412722,-0.093195 -0.181065,-0.095858 -0.284911,-0.2636093 -0.101183,-0.1677512 -0.101183,-0.3807692 0,-0.21568 0.101183,-0.380769 0.103846,-0.167751 0.284911,-0.260946 0.181065,-0.09586 0.412722,-0.09586 0.226331,0 0.394082,0.09586 0.167751,0.09319 0.247633,0.268934 l -0.322189,0.173077 q -0.05592,-0.101183 -0.141124,-0.149112 -0.08254,-0.04793 -0.181065,-0.04793 -0.106509,0 -0.191716,0.04793 -0.08521,0.04793 -0.135799,0.135798 -0.04793,0.08787 -0.04793,0.213018 0,0.125148 0.04793,0.213018 0.05059,0.087869 0.135799,0.1357985 0.08521,0.047929 0.191716,0.047929 0.09852,0 0.181065,-0.045266 0.08521,-0.047929 0.141124,-0.1517755 l 0.322189,0.1757399 q -0.07988,0.1730768 -0.247633,0.2689348 -0.167751,0.093195 -0.394082,0.093195 z m 1.544884,0 q -0.228994,0 -0.407396,-0.095858 -0.17574,-0.095858 -0.279586,-0.2609465 -0.101183,-0.167751 -0.101183,-0.380769 0,-0.21568 0.101183,-0.380769 0.103846,-0.167751 0.279586,-0.260946 0.178402,-0.09586 0.407396,-0.09586 0.226331,0 0.404733,0.09586 0.178403,0.09319 0.279586,0.258283 0.101183,0.165089 0.101183,0.383432 0,0.213018 -0.101183,0.380769 -0.101183,0.1650886 -0.279586,0.2609465 -0.178402,0.095858 -0.404733,0.095858 z m 0,-0.3408282 q 0.103846,0 0.18639,-0.047929 0.08255,-0.047929 0.130474,-0.1357983 0.04793,-0.09053 0.04793,-0.213018 0,-0.125148 -0.04793,-0.213018 -0.04793,-0.08787 -0.130474,-0.135798 -0.08254,-0.04793 -0.18639,-0.04793 -0.103846,0 -0.18639,0.04793 -0.08254,0.04793 -0.133136,0.135798 -0.04793,0.08787 -0.04793,0.213018 0,0.122485 0.04793,0.213018 0.05059,0.087869 0.133136,0.1357983 0.08254,0.047929 0.18639,0.047929 z m 1.062427,0.3195264 v -1.4325437 h 0.396745 v 0.396746 l -0.07456,-0.119823 q 0.07722,-0.143787 0.221006,-0.221006 0.143787,-0.07722 0.327515,-0.07722 0.170414,0 0.30355,0.06923 0.135798,0.06657 0.213017,0.207692 0.07722,0.138462 0.07722,0.356805 v 0.8201177 h -0.415384 v -0.7562127 q 0,-0.173077 -0.07722,-0.255621 -0.07456,-0.08254 -0.213018,-0.08254 -0.09852,0 -0.178402,0.0426 -0.07722,0.03994 -0.122485,0.125148 -0.0426,0.08521 -0.0426,0.218343 v 0.7082837 z"
         id="path1" /><path
         style="-inkscape-font-specification:Montserrat"
         d="m -20.71833,-6.8555133 v -1.863904 h 0.43136 v 1.863904 z m -1.278106,0 v -1.863904 h 0.431361 v 1.863904 z m 0.399408,-0.7642007 v -0.3647926 h 0.91065 v 0.3647926 z m 2.433728,0.7855024 q -0.244971,0 -0.431361,-0.095858 -0.183728,-0.095858 -0.284911,-0.2609465 -0.101183,-0.1677514 -0.101183,-0.380769 0,-0.2156803 0.09852,-0.380769 0.101184,-0.1677513 0.27426,-0.2609465 0.173077,-0.095858 0.39142,-0.095858 0.210355,0 0.378107,0.090532 0.170414,0.08787 0.268934,0.2556212 0.09852,0.1650886 0.09852,0.3967452 0,0.023964 -0.0027,0.055917 -0.0027,0.02929 -0.0053,0.055917 h -1.163609 v -0.2423075 h 0.945266 l -0.159764,0.071893 q 0,-0.1118342 -0.04527,-0.1943786 -0.04527,-0.082544 -0.125148,-0.1278105 -0.07988,-0.047929 -0.18639,-0.047929 -0.106509,0 -0.189053,0.047929 -0.07988,0.045266 -0.125148,0.1304733 -0.04527,0.082544 -0.04527,0.1970412 v 0.063905 q 0,0.1171597 0.05059,0.2076922 0.05326,0.08787 0.14645,0.1357987 0.09586,0.045266 0.223669,0.045266 0.114497,0 0.199704,-0.034615 0.08787,-0.034615 0.159763,-0.1038461 l 0.221006,0.2396448 q -0.09852,0.1118342 -0.247633,0.1730768 -0.149113,0.05858 -0.343491,0.05858 z m 0.969231,-0.021302 V -8.288057 h 0.396745 v 0.4047335 l -0.05592,-0.1171597 q 0.06391,-0.1517751 0.20503,-0.2289939 0.141124,-0.079882 0.343491,-0.079882 v 0.3834316 q -0.02663,-0.00266 -0.04793,-0.00266 -0.0213,-0.00266 -0.04527,-0.00266 -0.170414,0 -0.276922,0.098521 -0.103847,0.095858 -0.103847,0.3008874 v 0.6763309 z m 1.835632,0.021302 q -0.24497,0 -0.43136,-0.095858 -0.183728,-0.095858 -0.284912,-0.2609465 -0.101183,-0.1677514 -0.101183,-0.380769 0,-0.2156803 0.09852,-0.380769 0.101183,-0.1677513 0.27426,-0.2609465 0.173077,-0.095858 0.39142,-0.095858 0.210355,0 0.378106,0.090532 0.170414,0.08787 0.268935,0.2556212 0.09852,0.1650886 0.09852,0.3967452 0,0.023964 -0.0027,0.055917 -0.0027,0.02929 -0.0053,0.055917 h -1.163608 v -0.2423075 h 0.945265 l -0.159763,0.071893 q 0,-0.1118342 -0.04527,-0.1943786 -0.04527,-0.082544 -0.125148,-0.1278105 -0.07988,-0.047929 -0.186391,-0.047929 -0.106508,0 -0.189053,0.047929 -0.07988,0.045266 -0.125147,0.1304733 -0.04527,0.082544 -0.04527,0.1970412 v 0.063905 q 0,0.1171597 0.05059,0.2076922 0.05325,0.08787 0.14645,0.1357987 0.09586,0.045266 0.223668,0.045266 0.114497,0 0.199704,-0.034615 0.08787,-0.034615 0.159763,-0.1038461 l 0.221006,0.2396448 q -0.09852,0.1118342 -0.247633,0.1730768 -0.149112,0.05858 -0.343491,0.05858 z"
         id="path2" /></g></g></svg>
