<?xml version="1.0" encoding="UTF-8" standalone="no"?>
<!-- Created with Inkscape (http://www.inkscape.org/) -->

<svg
   width="1000"
   height="167.90332"
   viewBox="0 0 264.58333 44.42442"
   version="1.1"
   id="svg1"
   xml:space="preserve"
   sodipodi:docname="ramalama-logo-text-only.svg"
   inkscape:version="1.4 (e7c3feb1, 2024-10-09)"
   xmlns:inkscape="http://www.inkscape.org/namespaces/inkscape"
   xmlns:sodipodi="http://sodipodi.sourceforge.net/DTD/sodipodi-0.dtd"
   xmlns="http://www.w3.org/2000/svg"
   xmlns:svg="http://www.w3.org/2000/svg"><sodipodi:namedview
     id="namedview1"
     pagecolor="#ffffff"
     bordercolor="#000000"
     borderopacity="0.25"
     inkscape:showpageshadow="2"
     inkscape:pageopacity="0.0"
     inkscape:pagecheckerboard="0"
     inkscape:deskcolor="#d1d1d1"
     inkscape:document-units="mm"
     inkscape:zoom="1.4364581"
     inkscape:cx="526.2945"
     inkscape:cy="325.80136"
     inkscape:window-width="2560"
     inkscape:window-height="1387"
     inkscape:window-x="0"
     inkscape:window-y="25"
     inkscape:window-maximized="0"
     inkscape:current-layer="g54"><inkscape:page
       x="0"
       y="0"
       width="264.58334"
       height="44.424419"
       id="page1"
       margin="0 0 174.7403"
       bleed="0" /></sodipodi:namedview><defs
     id="defs1" /><g
     id="g54"
     transform="matrix(1.4150922,0,0,1.4150922,-327.05935,-125.33613)"><path
       style="font-weight:bold;font-size:34.3472px;line-height:1;font-family:'Red Hat Display';-inkscape-font-specification:'Red Hat Display Bold';text-align:center;letter-spacing:0px;text-anchor:middle;fill:#1f1f1f;stroke-width:3.27379;stroke-linecap:round;stroke-linejoin:round"
       d="m 252.49655,112.61402 h 4.98034 V 92.967424 h 8.07159 v -4.396442 h -21.15787 v 4.396442 h 8.10594 z m 20.19618,0.34347 c 2.88517,0 5.08339,-0.78998 7.28161,-2.57604 l -3.09125,-2.81647 c -0.92737,0.92738 -2.36995,1.44259 -3.94993,1.44259 -2.47299,0 -4.39644,-1.54563 -5.01469,-3.74385 h 13.25802 v -1.2365 c 0,-5.49555 -3.77819,-9.617214 -8.86158,-9.617214 -5.15208,0 -9.20504,4.087317 -9.20504,9.273744 0,5.22077 4.19035,9.27374 9.58286,9.27374 z m -4.84295,-11.05979 c 0.51521,-2.198225 2.19822,-3.60646 4.36209,-3.60646 2.09518,0 3.81254,1.476929 4.32775,3.60646 z m 12.94893,10.71632 h 5.25512 l 4.2247,-5.70163 4.22471,5.70163 h 5.49555 l -7.00683,-9.1707 6.59466,-8.724189 h -5.28947 l -3.91558,5.323819 -3.94992,-5.323819 h -5.46121 l 6.69771,8.792879 z m 29.12642,0.27478 c 1.03042,0 2.64473,-0.20608 3.6408,-0.51521 v -3.88123 c -0.92737,0.30912 -1.61432,0.41216 -2.50734,0.41216 -1.8204,0 -2.473,-0.61825 -2.473,-2.30126 v -7.968548 h 5.11773 v -3.915581 h -5.11773 V 89.08619 l -4.70557,1.064763 v 4.568178 h -3.67515 v 3.915581 h 3.67515 v 8.930268 c 0,3.50342 2.06083,5.32382 6.04511,5.32382 z m 13.29237,-0.27478 h 18.13532 v -4.39644 H 328.19784 V 88.570982 h -4.98034 z m 29.33254,0.34347 c 5.35817,0 9.54852,-4.05297 9.54852,-9.27374 0,-5.220774 -4.19035,-9.308091 -9.54852,-9.308091 -5.35816,0 -9.54852,4.087317 -9.54852,9.308091 0,5.22077 4.19036,9.27374 9.54852,9.27374 z m 0,-4.08731 c -2.78212,0 -4.94599,-2.26692 -4.94599,-5.18643 0,-2.91951 2.19822,-5.220774 4.94599,-5.220774 2.78213,0 4.98035,2.301264 4.98035,5.220774 0,2.91951 -2.19822,5.18643 -4.98035,5.18643 z m 21.43263,11.09414 c 5.73599,0 8.86158,-2.64473 8.86158,-7.38465 V 94.719131 h -4.63687 v 1.167805 c -1.40824,-0.927375 -3.09125,-1.442583 -4.84296,-1.442583 -5.15208,0 -9.20505,4.018623 -9.20505,9.102007 0,5.15208 4.01863,9.1707 9.06766,9.1707 1.78606,0 3.46907,-0.5839 4.91165,-1.61432 v 1.40824 c 0,2.36996 -1.44258,3.57211 -4.25905,3.57211 -1.88909,0 -3.74384,-0.44652 -5.70163,-1.40824 l -1.64867,3.64081 c 2.09518,1.06476 4.70557,1.64866 7.45334,1.64866 z m -0.0343,-11.23153 c -2.91952,0 -5.15208,-2.26692 -5.15208,-5.18643 0,-2.85082 2.26691,-5.083384 5.18642,-5.083384 1.64867,0 3.1256,0.618249 4.15601,1.614314 v 7.00683 c -1.03041,1.06477 -2.47299,1.64867 -4.19035,1.64867 z m 21.3296,4.2247 c 5.35817,0 9.54852,-4.05297 9.54852,-9.27374 0,-5.220774 -4.19035,-9.308091 -9.54852,-9.308091 -5.35816,0 -9.54852,4.087317 -9.54852,9.308091 0,5.22077 4.19036,9.27374 9.54852,9.27374 z m 0,-4.08731 c -2.78212,0 -4.94599,-2.26692 -4.94599,-5.18643 0,-2.91951 2.19822,-5.220774 4.94599,-5.220774 2.78213,0 4.98035,2.301264 4.98035,5.220774 0,2.91951 -2.19822,5.18643 -4.98035,5.18643 z"
       id="text1"
       aria-label="Text Logo" /></g></svg>
